<?xml version="1.0" encoding="UTF-8" standalone="no"?>
<svg
   version="1.1"
   width="600"
   height="600"
   id="svg1"
   sodipodi:docname="favicon.svg"
   inkscape:version="1.4 (e7c3feb1, 2024-10-09)"
   xmlns:inkscape="http://www.inkscape.org/namespaces/inkscape"
   xmlns:sodipodi="http://sodipodi.sourceforge.net/DTD/sodipodi-0.dtd"
   xmlns="http://www.w3.org/2000/svg"
   xmlns:svg="http://www.w3.org/2000/svg">
  <sodipodi:namedview
     id="namedview1"
     inkscape:zoom="0.94833333"
     inkscape:cx="299.47276"
     inkscape:cy="298.94552"
     inkscape:window-width="1712"
     inkscape:window-height="1040"
     inkscape:window-x="0"
     inkscape:window-y="39"
     inkscape:window-maximized="0"
     inkscape:current-layer="svg1"
     pagecolor="#ffffff"
     bordercolor="#000000"
     borderopacity="0.25"
     inkscape:showpageshadow="2"
     inkscape:pageopacity="0.0"
     inkscape:pagecheckerboard="0"
     inkscape:deskcolor="#d1d1d1" />
  <defs
     id="defs1">
    <defs
       id="SvgjsDefs1020" />
    <sodipodi:namedview
       id="SvgjsSodipodi:namedview1019"
       pagecolor="#ffffff"
       bordercolor="#000000"
       borderopacity="0.25"
       inkscape:showpageshadow="2"
       inkscape:pageopacity="0.0"
       inkscape:pagecheckerboard="0"
       inkscape:deskcolor="#d1d1d1"
       inkscape:zoom="0.94833333"
       inkscape:cx="299.47276"
       inkscape:cy="300"
       inkscape:window-width="1560"
       inkscape:window-height="788"
       inkscape:window-x="0"
       inkscape:window-y="39"
       inkscape:window-maximized="0"
       inkscape:current-layer="svg1" />
    <linearGradient
       id="a"
       gradientUnits="userSpaceOnUse"
       x1="1493.5"
       y1="2711.7009"
       x2="1493.5"
       y2="2628.4751"
       gradientTransform="matrix(8.6858416,0,0,8.6858416,-12617.266,-22920.803)">
      <stop
         offset="0"
         stop-color="#2b233d"
         id="stop75"
         style="stop-color:#ffffff;stop-opacity:1;" />
      <stop
         offset="1"
         stop-color="#2b233d"
         id="stop77" />
    </linearGradient>
  </defs>
  <rect
     id="SvgjsRect1017"
     width="600"
     height="600"
     y="0"
     x="0"
     fill="#000000"
     style="stroke-width:200" />
  <rect
     id="SvgjsRect1016"
     width="600"
     height="400"
     y="200"
     x="0"
     fill="#dd0000"
     style="stroke-width:200" />
  <rect
     id="SvgjsRect1015"
     width="600"
     height="200"
     y="400"
     x="0"
     fill="#ffce00"
     style="stroke-width:200" />
  <style
     id="style1">@media (prefers-color-scheme: light) { :root { filter: none; } }
@media (prefers-color-scheme: dark) { :root { filter: none; } }
</style>
  <path
     fill="url(#a)"
     d="m 421.15464,379.2512 c 0,-6.9898 -5.24236,-12.23218 -12.23219,-12.23218 -43.68641,0 -70.77197,15.72711 -86.49908,34.07539 V 230.71747 c 0,-6.98983 -5.24236,-12.23221 -12.23219,-12.23221 -6.98981,0 -12.23217,5.24238 -12.23217,12.23221 v 321.53187 c 0,6.98982 5.24236,12.23219 12.23217,12.23219 6.98983,0 12.23219,-5.24237 12.23219,-12.23219 v -86.49908 c 0,-74.26686 86.49908,-74.26686 86.49908,-74.26686 6.98983,0.87371 12.23219,-5.24236 12.23219,-12.2322 z M 260.38869,367.01902 c -11.35847,0 -20.96948,0.87373 -30.58047,2.62119 -55.04486,-1.74746 -99.60498,-47.1813 -99.60498,-102.22616 0,-55.91863 44.56012,-101.35247 100.47869,-102.22619 h 13.97965 l -3.49489,-13.97966 c -1.74748,-6.11609 -1.74748,-12.23217 -1.74748,-18.34828 0,-45.43385 36.69657,-83.004145 83.00416,-83.004145 45.43384,0 83.00419,36.696571 83.00419,83.004145 0,4.36864 0,8.7373 -0.87377,13.10591 0,6.11613 5.24238,10.48473 11.35849,10.48473 6.11608,0 10.48474,-4.3686 11.35845,-9.61099 0.87373,-4.36864 0.87373,-9.61101 0.87373,-13.97965 0,-28.83302 -11.35845,-55.04487 -30.58046,-74.266875 C 378.34197,39.371041 351.25641,27.13884 322.42337,27.13884 c -58.53975,0 -105.72106,47.181309 -105.72106,105.72108 0,3.49493 0,6.98983 0.87372,10.48473 -62.0347,7.86355 -109.21601,60.28724 -109.21601,124.0694 0,54.17109 43.54514,111.66565 83.00416,117.95325 39.45905,6.28763 32.01528,7.84403 69.02451,6.1161 7.18505,-0.33547 12.2322,-5.24236 12.2322,-12.2322 0,-6.11609 -5.24238,-12.23218 -12.2322,-12.23218 z"
     id="path80"
     style="fill:#ffffff;fill-opacity:1;stroke-width:8.73727"
     sodipodi:nodetypes="sscssssssscsscscccssscscsssscszsss" />
</svg>
